<svg width="100" height="100" viewBox="0 0 100 100" fill="none" xmlns="http://www.w3.org/2000/svg">
<path fill-rule="evenodd" clip-rule="evenodd" d="M50 0C77.6142 0 100 22.3858 100 50C100 77.6142 77.6142 100 50 100C22.3858 100 0 77.6142 0 50C0 22.3858 22.3858 0 50 0ZM52.0703 38.3385C51.9154 38.2318 51.7175 38.2061 51.5399 38.2696L40.3345 42.2767C39.8767 42.4406 39.5721 42.8687 39.5722 43.3479V58.5051H37.2549V60.7843H62.7451V58.5051H60.4278V47.9303C60.4279 47.4396 60.1087 47.0039 59.6353 46.8488L52.3173 44.4499V38.8053C52.3174 38.6194 52.2251 38.4451 52.0703 38.3385ZM50 41.2453V58.5051H41.8895V44.1467L50 41.2453ZM52.3173 46.8523L58.1105 48.752V58.5051H52.3173V46.8523Z" fill="#403E3B"/>
</svg>
