<svg width="100" height="100" viewBox="0 0 100 100" fill="none" xmlns="http://www.w3.org/2000/svg">
<path fill-rule="evenodd" clip-rule="evenodd" d="M50 0C77.6142 0 100 22.3858 100 50C100 77.6142 77.6142 100 50 100C22.3858 100 0 77.6142 0 50C0 22.3858 22.3858 0 50 0ZM43.6819 36.2745L38.2353 43.1373V63.7255H49.1285V43.1373L43.6819 36.2745ZM61.3834 39.0197H53.2135C52.4615 39.0197 51.8519 39.6341 51.8519 40.3921V62.3529C51.8519 63.111 52.4615 63.7255 53.2135 63.7255H61.3834C62.1354 63.7255 62.7451 63.111 62.7451 62.3529V58.2353H60.0218V55.4902H62.7451V52.7451H58.6601V50H62.7451V47.2549H60.0218V44.5098H62.7451V40.3921C62.7451 39.6341 62.1354 39.0197 61.3834 39.0197ZM46.4052 58.2353V60.9803H40.9586V58.2353H46.4052Z" fill="#403E3B"/>
</svg>
