<svg width="100" height="100" viewBox="0 0 100 100" fill="none" xmlns="http://www.w3.org/2000/svg">
<path fill-rule="evenodd" clip-rule="evenodd" d="M50 0C77.6142 0 100 22.3858 100 50C100 77.6142 77.6142 100 50 100C22.3858 100 0 77.6142 0 50C0 22.3858 22.3858 0 50 0ZM51.3686 40.8561L42.6004 41.8294C40.6537 50.2658 39.1905 55.2948 35.2941 59.8379L37.2161 61.757C41.8055 56.6316 43.1791 50.7503 44.8214 44.3515L50.3573 43.7376L56.2776 49.6532L55.6631 55.1846C49.2592 56.8256 43.372 58.1982 38.2439 62.784L40.1659 64.7059C44.7112 60.8126 49.7456 59.3519 58.1886 57.4052L59.1626 48.6441L51.3686 40.8561ZM49.4204 50.5893C48.7286 49.8735 47.704 49.5865 46.7406 49.8384C45.7772 50.0904 45.0248 50.8422 44.7726 51.8048C44.5205 52.7675 44.8078 53.7913 45.5241 54.4826C46.609 55.5109 48.3154 55.4887 49.3719 54.4327C50.4284 53.3767 50.4499 51.6716 49.4204 50.5893ZM54.7786 36.4754C54.594 36.2915 54.3213 36.2275 54.074 36.3099C53.8268 36.3924 53.6473 36.6073 53.6102 36.8651L53.3182 38.9094L61.1108 46.696L63.1416 46.3794C63.3983 46.3398 63.6108 46.1594 63.6914 45.9128C63.7721 45.6662 63.707 45.3953 63.5233 45.212L54.7786 36.4754Z" fill="#403E3B"/>
</svg>
